<?xml version="1.0" standalone="no"?>
<!DOCTYPE svg PUBLIC "-//W3C//DTD SVG 20010904//EN"
 "http://www.w3.org/TR/2001/REC-SVG-20010904/DTD/svg10.dtd">
<svg version="1.0" xmlns="http://www.w3.org/2000/svg"
 width="128.000000pt" height="128.000000pt" viewBox="0 0 128.000000 128.000000"
 preserveAspectRatio="xMidYMid meet">

<g transform="translate(0.000000,128.000000) scale(0.100000,-0.100000)"
fill="#000000" stroke="none">
<path d="M550 1270 c-97 -21 -229 -105 -203 -131 7 -7 24 -1 57 22 25 18 48
31 50 28 3 -3 -2 -47 -10 -98 -10 -60 -12 -97 -5 -104 17 -17 29 2 40 70 25
151 29 162 69 173 77 21 214 6 225 -24 3 -8 14 -63 23 -121 16 -99 31 -131 51
-111 3 3 -2 54 -11 112 -9 59 -15 109 -13 110 1 2 25 -14 52 -34 98 -74 153
-193 140 -305 -8 -75 -43 -170 -88 -239 -35 -55 -103 -125 -111 -117 -3 3 1
26 9 52 21 71 30 163 15 172 -17 11 -21 3 -40 -92 -10 -48 -25 -108 -32 -133
-13 -44 -15 -45 -71 -59 -48 -11 -66 -11 -114 0 l-57 14 -18 59 c-10 33 -24
94 -31 135 -10 60 -16 77 -31 79 -17 4 -18 -1 -11 -64 4 -37 13 -88 21 -113 7
-25 11 -47 9 -50 -9 -8 -66 52 -104 109 -103 153 -124 316 -56 438 30 54 31
62 6 62 -14 0 -27 -16 -45 -52 -65 -134 -54 -268 38 -432 37 -66 133 -171 167
-181 15 -5 49 -84 49 -112 0 -2 -9 -3 -20 -3 -33 0 -70 -44 -70 -83 0 -18 -5
-38 -11 -44 -5 -5 -11 -25 -11 -43 -1 -26 6 -40 29 -59 17 -14 34 -36 37 -49
12 -39 55 -52 166 -52 106 0 151 13 165 47 4 10 11 47 15 83 6 59 8 62 15 33
10 -45 35 -43 35 1 0 19 -4 38 -10 41 -5 3 -10 22 -10 41 0 40 -37 84 -71 84
-14 0 -19 5 -16 14 3 8 11 33 17 55 6 25 18 42 30 46 37 12 136 122 174 194
51 98 69 163 69 251 0 163 -99 298 -262 360 -61 24 -177 33 -241 20z m58 -876
c6 -2 12 -17 12 -34 0 -26 -3 -30 -29 -30 -24 0 -31 6 -40 31 -6 18 -11 36
-11 41 0 7 30 4 68 -8z m132 7 c0 -4 -5 -22 -11 -40 -9 -25 -16 -31 -41 -31
-27 0 -29 2 -26 32 2 27 8 34 33 39 44 10 45 10 45 0z m67 -127 c12 -31 -11
-49 -67 -52 -29 -2 -58 2 -63 7 -14 14 -60 14 -74 0 -5 -5 -34 -9 -63 -7 -60
3 -84 24 -61 52 20 24 319 24 328 0z m-147 -95 c7 -11 9 -27 6 -35 -7 -18 -45
-18 -52 0 -6 17 12 56 26 56 5 0 14 -9 20 -21z m-200 -21 c0 -23 -3 -29 -9
-19 -8 12 -4 51 5 51 2 0 4 -15 4 -32z m110 -2 c0 -38 32 -69 70 -69 38 0 70
31 70 69 0 21 5 24 35 24 l35 0 0 -48 c0 -27 -7 -57 -16 -70 -14 -20 -23 -22
-124 -22 -101 0 -110 2 -124 22 -9 13 -16 43 -16 70 l0 48 35 0 c30 0 35 -3
35 -24z"/>
<path d="M422 848 c4 -43 33 -46 33 -3 0 21 -5 31 -18 33 -15 3 -18 -2 -15
-30z"/>
<path d="M824 866 c-9 -23 0 -51 16 -51 10 0 16 12 18 33 2 24 -1 32 -13 32
-8 0 -18 -6 -21 -14z"/>
<path d="M570 831 c0 -28 59 -46 104 -31 35 11 53 35 35 46 -6 3 -24 0 -40 -6
-23 -10 -36 -10 -55 -1 -35 16 -44 14 -44 -8z"/>
</g>
</svg>
